<svg width="32" height="32" viewBox="0 0 32 32" xmlns="http://www.w3.org/2000/svg">
  <defs>
    <!-- Gradients for luxury effect -->
    <linearGradient id="triangleGrad" x1="0%" y1="0%" x2="100%" y2="100%">
      <stop offset="0%" style="stop-color:#1a1a1a;stop-opacity:1" />
      <stop offset="50%" style="stop-color:#000000;stop-opacity:1" />
      <stop offset="100%" style="stop-color:#2a0a0a;stop-opacity:1" />
    </linearGradient>
    
    <linearGradient id="serpentGrad" x1="0%" y1="0%" x2="100%" y2="100%">
      <stop offset="0%" style="stop-color:#ff0000;stop-opacity:1" />
      <stop offset="50%" style="stop-color:#cc0000;stop-opacity:1" />
      <stop offset="100%" style="stop-color:#990000;stop-opacity:1" />
    </linearGradient>
    
    <radialGradient id="centerGlow" cx="50%" cy="50%" r="50%">
      <stop offset="0%" style="stop-color:#ffffff;stop-opacity:0.3" />
      <stop offset="100%" style="stop-color:#ffffff;stop-opacity:0" />
    </radialGradient>
    
    <!-- Filters for gothic effects -->
    <filter id="dropshadow" x="-50%" y="-50%" width="200%" height="200%">
      <feDropShadow dx="0.5" dy="0.5" stdDeviation="0.3" flood-color="#000000" flood-opacity="0.5"/>
    </filter>
    
    <filter id="innershadow">
      <feFlood flood-color="#000000" flood-opacity="0.3"/>
      <feComposite in="SourceGraphic"/>
    </filter>
  </defs>
  
  <!-- Main Triangle Base -->
  <path d="M 16 1 L 30 29 L 2 29 Z" 
        fill="url(#triangleGrad)" 
        stroke="#cc0000" 
        stroke-width="1"
        filter="url(#dropshadow)"/>
  
  <!-- Inner Triangle Frame -->
  <path d="M 16 3 L 28 27 L 4 27 Z" 
        fill="none" 
        stroke="#ffffff" 
        stroke-width="0.5" 
        opacity="0.4"/>
  
  <!-- Gothic Cross at Top -->
  <g transform="translate(16, 7)">
    <path d="M 0 -2 L 0 2 M -1.5 0 L 1.5 0" 
          stroke="#ffffff" 
          stroke-width="0.6" 
          stroke-linecap="round"/>
    <circle cx="0" cy="0" r="2.5" 
            fill="none" 
            stroke="#cc0000" 
            stroke-width="0.3" 
            opacity="0.6"/>
  </g>
  
  <!-- Stylized Serpent - Neo-traditional style -->
  <g transform="translate(16, 16)">
    <!-- Serpent body curves -->
    <path d="M -8 6 Q -4 2 0 0 Q 4 -2 8 2 Q 6 6 2 8 Q -2 6 -6 4" 
          fill="none" 
          stroke="url(#serpentGrad)" 
          stroke-width="2.5" 
          stroke-linecap="round"
          stroke-linejoin="round"/>
    
    <!-- Serpent head -->
    <ellipse cx="8" cy="2" rx="2.5" ry="1.8" 
             fill="url(#serpentGrad)" 
             transform="rotate(30 8 2)"/>
    
    <!-- Serpent eye -->
    <circle cx="8.5" cy="1.5" r="0.4" fill="#ffffff"/>
    <circle cx="8.7" cy="1.3" r="0.15" fill="#000000"/>
    
    <!-- Serpent fangs -->
    <path d="M 9.5 2.5 L 10 3.2 M 9.8 2.3 L 10.3 2.8" 
          stroke="#ffffff" 
          stroke-width="0.2"/>
    
    <!-- Serpent scales pattern -->
    <g opacity="0.3">
      <ellipse cx="-2" cy="2" rx="0.8" ry="0.4" fill="#ffffff" transform="rotate(45 -2 2)"/>
      <ellipse cx="2" cy="-1" rx="0.8" ry="0.4" fill="#ffffff" transform="rotate(-30 2 -1)"/>
      <ellipse cx="5" cy="1" rx="0.8" ry="0.4" fill="#ffffff" transform="rotate(15 5 1)"/>
    </g>
  </g>
  
  <!-- Esoteric Symbols -->
  <!-- Pentagram elements -->
  <g transform="translate(8, 12)" opacity="0.6">
    <path d="M 0 -1.5 L 1 0.5 L -1 -0.5 L 1 -0.5 L -1 0.5 Z" 
          fill="none" 
          stroke="#ffffff" 
          stroke-width="0.3"/>
  </g>
  
  <g transform="translate(24, 18)" opacity="0.6">
    <path d="M 0 -1.5 L 1 0.5 L -1 -0.5 L 1 -0.5 L -1 0.5 Z" 
          fill="none" 
          stroke="#ffffff" 
          stroke-width="0.3"/>
  </g>
  
  <!-- Gothic Ornaments -->
  <g transform="translate(12, 24)" opacity="0.5">
    <path d="M -2 0 Q 0 -2 2 0 Q 0 2 -2 0" 
          fill="#cc0000"/>
  </g>
  
  <g transform="translate(20, 24)" opacity="0.5">
    <path d="M -2 0 Q 0 -2 2 0 Q 0 2 -2 0" 
          fill="#cc0000"/>
  </g>
  
  <!-- Luxury brand elements -->
  <!-- Diamond shapes for luxury -->
  <g transform="translate(16, 22)">
    <path d="M 0 -1 L 0.8 0 L 0 1 L -0.8 0 Z" 
          fill="#ffffff" 
          opacity="0.7"/>
  </g>
  
  <!-- Fleur-de-lis inspired elements -->
  <g transform="translate(6, 20)" opacity="0.4">
    <path d="M 0 -1 Q -0.5 -0.5 0 0 Q 0.5 -0.5 0 -1 M 0 0 L 0 1" 
          stroke="#ffffff" 
          stroke-width="0.4" 
          fill="none"/>
  </g>
  
  <g transform="translate(26, 20)" opacity="0.4">
    <path d="M 0 -1 Q -0.5 -0.5 0 0 Q 0.5 -0.5 0 -1 M 0 0 L 0 1" 
          stroke="#ffffff" 
          stroke-width="0.4" 
          fill="none"/>
  </g>
  
  <!-- Art Nouveau curves -->
  <path d="M 4 16 Q 8 14 12 16 Q 16 18 20 16 Q 24 14 28 16" 
        fill="none" 
        stroke="#cc0000" 
        stroke-width="0.3" 
        opacity="0.4"/>
  
  <!-- Central mystical glow -->
  <circle cx="16" cy="16" r="8" 
          fill="url(#centerGlow)"/>
  
  <!-- Border decoration -->
  <path d="M 16 1 L 30 29 L 2 29 Z" 
        fill="none" 
        stroke="#ffffff" 
        stroke-width="0.2" 
        opacity="0.2" 
        stroke-dasharray="1,1"/>
</svg>